<svg width="231" height="85" viewBox="0 0 231 85" fill="none" xmlns="http://www.w3.org/2000/svg">
<mask id="mask0_130_440" style="mask-type:luminance" maskUnits="userSpaceOnUse" x="0" y="0" width="99" height="85">
<path d="M0 0H98.9479V84.9427H0V0Z" fill="white"/>
</mask>
<g mask="url(#mask0_130_440)">
<path d="M76.3958 68.6458C76.3958 68.7604 76.276 68.8802 76.2135 69C72.1927 74.1563 67.0573 78.2188 61.3073 81.0104C55.5833 83.849 49.1771 85.3333 42.6771 85.3333C31.1406 85.3333 20.6771 80.776 13.0052 73.3229C9.75521 70.6042 6.91667 66.8802 4.59896 62.0208C1.66667 56.1771 0 49.6146 0 42.6354C0 41.9844 0 41.2708 0.0625 40.6354C0.119792 39.5625 0.177084 38.5729 0.296875 37.5625C1.48958 27.8125 5.90625 19.1094 12.4896 12.4896C20.2188 4.79688 30.8646 0 42.6979 0C54.4688 0 65.1146 4.79687 72.8438 12.4688C80.5365 20.2188 85.3125 30.8646 85.3125 42.6198C85.3125 43.8073 85.2552 44.974 85.1927 46.1042C85.0781 47.2969 84.9583 48.4063 84.7813 49.5938C84.6615 50.3073 83.9479 50.7813 83.2917 50.6667C82.5781 50.5469 82.1042 49.8906 82.224 49.1771C82.3385 48.1094 82.5208 47 82.5781 45.9271C82.6979 44.8594 82.7552 43.7448 82.7552 42.6198C82.7552 31.5573 78.2552 21.5677 70.9844 14.2917C63.7083 7.01563 53.7188 2.57813 42.6563 2.57813C31.5365 2.57813 21.5469 7.01563 14.2708 14.2917C12.6094 16.0156 11.0833 17.8385 9.71354 19.7813C10.6667 18.9479 11.6563 18.2344 12.6667 17.5417C17.0469 14.7083 22.0052 13.1615 26.6823 12.7448C32.349 12.2708 37.6823 13.5208 41.0521 16.4115C53.2396 26.6406 46.3646 39.349 46.026 40C45.9688 40.0625 45.9063 40.1198 45.9063 40.1771L45.849 40.2396V40.2969H45.7917V40.3594H45.7292V40.4167C45.6719 40.4167 45.6094 40.474 45.5521 40.474V40.5365H45.4896L45.4323 40.5938C45.2552 40.6562 45.0729 40.7135 44.8958 40.7135H44.8385C44.7188 40.7135 44.6615 40.7135 44.599 40.7135H44.5417V40.6563C44.3594 40.6563 44.1823 40.5365 44.0625 40.4167H44.0052V40.3594H43.9479L43.8854 40.2969V40.2396C43.8281 40.2396 43.8281 40.1771 43.7656 40.1771V40.1198L43.7083 40.0625V40.0417C43.5885 39.8594 43.5885 39.6823 43.5313 39.5052V39.4479L43.5885 39.3854V39.3281C43.5885 38.5521 43.5313 31.6354 35.4219 32.8229C32.5885 33.2396 30.5052 36.3125 29.6354 40.2188C29.2188 42.1615 29.099 44.3021 29.276 46.4219C29.5156 48.5417 30.1094 50.625 31.0417 52.4479C33.1615 56.5938 37.3646 59.6042 44.1615 59.3073C46.8802 59.1875 49.5938 58.7708 52.2708 58.2344C54.9271 57.7604 57.5833 57.1094 60.1406 56.474C74.9844 52.8073 88.1667 49.5573 98.9323 71.1979C99.2292 71.8542 98.9896 72.625 98.3385 72.9271C97.8594 73.1615 97.2656 73.0417 96.9115 72.6875C96.2552 72.0729 87.2188 65.0938 76.3958 68.6458ZM64.1042 24.3021C66.8177 24.3021 69.3177 25.4323 71.1406 27.1979C72.9063 29.0208 74.0365 31.5156 74.0365 34.2344C74.0365 36.9479 72.9063 39.4479 71.1406 41.2708C69.3177 43.0313 66.8177 44.1615 64.1042 44.1615C61.3906 44.1615 58.8906 43.0313 57.0677 41.2708C55.3021 39.4479 54.1719 36.9479 54.1719 34.2344C54.1719 31.5156 55.3021 29.0208 57.0677 27.1979C58.8906 25.4323 61.3698 24.3021 64.1042 24.3021ZM69.2969 29.0417C67.9323 27.7292 66.1042 26.9167 64.0833 26.9167C62.0625 26.9167 60.2396 27.75 58.8698 29.0417C57.5625 30.4063 56.75 32.2292 56.75 34.25C56.75 36.2552 57.5833 38.099 58.8698 39.4635C60.2396 40.776 62.0625 41.5885 64.0833 41.5885C66.1042 41.5885 67.9323 40.7552 69.2969 39.4635C70.6042 38.099 71.4167 36.276 71.4167 34.25C71.4375 32.2292 70.6042 30.3854 69.2969 29.0417ZM42.1615 31.2188C40.6146 28.1458 37.6042 25.6719 31.5781 26.6615C29.6927 27.0156 27.9688 27.5521 26.4844 28.2656C22.5781 30.0885 19.9792 33.125 18.4948 36.5521C17.0052 40.0417 16.6094 43.9427 17.2448 47.5521C17.4844 49.2188 18.0208 50.8021 18.6719 52.2292C20.6146 56.375 24.6406 58.849 30.0313 59.8646C31.7969 60.2188 33.7552 60.3958 35.8177 60.4583C32.5677 58.9688 30.2708 56.5521 28.7813 53.7188C27.651 51.5365 27.0156 49.099 26.7813 46.7396C26.5417 44.3229 26.6615 41.8854 27.1979 39.7031C28.3281 34.7865 31.1615 30.901 35.0677 30.3073C38.2552 29.7917 40.5573 30.2656 42.1615 31.2188ZM52.8646 60.7917C44.0052 62.974 35.9583 63.6302 29.5156 62.401C23.3698 61.2083 18.75 58.2552 16.3958 53.3021C15.5625 51.6979 15.026 49.8698 14.7292 47.9896C14.0156 43.9635 14.4323 39.526 16.1563 35.5781C17.8802 31.6354 20.8906 28.125 25.375 26.0052C27.099 25.1719 29.0417 24.5781 31.1615 24.1823C40.8542 22.5781 44.3438 28.0885 45.5885 32.9844C46.0677 28.901 45.2917 23.349 39.4479 18.4323C36.6094 16.0156 31.9323 14.9479 26.9167 15.3646C22.6563 15.776 18.1198 17.1875 14.151 19.8021C10.1875 22.3385 6.76042 26.0677 4.69792 31.0417C3.86458 32.9844 3.27083 35.2448 2.93229 37.6042C2.81771 38.849 2.69792 40.1406 2.63542 41.3906C2.57812 45.5885 3.22917 50.3698 4.9375 55.6979C5.41146 57.0677 5.88542 58.3542 6.42188 59.6042C6.48438 59.724 6.59896 59.8438 6.66146 59.9635C7.72917 61.8438 10.8021 66.5208 17.4219 69.2969C24.1615 72.0729 34.6302 72.7865 50.3073 66.5833C66.6823 60.1406 76.9688 58.9479 84.0677 60.5573C86.6042 61.0938 88.6823 61.9844 90.5052 63.0313C81.9219 53.8177 71.875 56.2969 60.875 59.0104C58.2396 59.6042 55.5833 60.2604 52.8646 60.7917ZM91.3021 66.7031C89.1771 65.0365 86.6823 63.6875 83.4896 62.974C76.8698 61.5469 67.0573 62.6771 51.2604 68.9427C34.7656 75.4427 23.6458 74.6094 16.375 71.599C15.3646 71.1823 14.4323 70.7031 13.599 70.2292L13.6563 70.2865C24.9583 80.8125 42.2188 78.276 55.8177 73.8958C62.0833 71.8958 67.7135 69.5156 71.599 67.8125C72.4896 67.4531 73.2604 67.099 73.8385 66.8594C80.5938 64.0469 86.7396 65.0365 91.3021 66.7031ZM27.6146 79.8229C32.2917 81.7083 37.3646 82.7188 42.6979 82.7188C48.8438 82.7188 54.8281 81.2917 60.1979 78.6927C64.2813 76.75 68.0104 74.0729 71.2031 70.8229C67.4167 72.4271 62.3385 74.5521 56.5938 76.375C47.5938 79.2292 37.125 81.3698 27.6146 79.8229Z" fill="#007BFF"/>
</g>
<path d="M115.896 56.8324C115.922 57.5668 115.922 58.4626 115.896 59.5199C115.865 60.572 115.735 61.4574 115.5 62.1657C115.25 62.8168 114.729 63.2282 113.938 63.3949C113.156 63.572 112.604 63.3116 112.271 62.6032C111.839 61.546 111.552 59.8793 111.417 57.6032C111.386 57.4366 111.375 57.3116 111.375 57.2282C111.193 54.3272 111.073 52.5772 111.021 51.9782C110.74 48.0199 110.547 44.598 110.438 41.7074C110.438 41.6657 110.438 41.6241 110.438 41.5824C110.438 41.5407 110.438 41.5095 110.438 41.4782C109.896 41.5095 107.672 41.5824 103.771 41.7074C103.271 41.7387 102.485 41.7699 101.417 41.8116C100.344 41.8532 99.5522 41.8741 99.0418 41.8741C99.0418 41.9887 99.0418 42.1137 99.0418 42.2491C99.0418 42.3897 99.0418 42.5199 99.0418 42.6449C99.0418 42.7595 99.047 42.8741 99.0626 42.9991C99.073 43.1241 99.0835 43.2439 99.0835 43.3532C99.0835 43.6189 99.1251 44.6553 99.2085 46.4574C99.3022 48.2647 99.3387 49.3064 99.3126 49.5824C99.297 49.848 99.2762 50.8741 99.2501 52.6657C99.1668 54.3064 98.7137 55.7595 97.896 57.0199C97.073 58.2803 95.896 58.947 94.3543 59.0199C93.073 59.046 92.021 58.5043 91.1876 57.3949C90.3439 56.2855 90.2449 55.1762 90.896 54.0616C91.1616 53.6605 91.4949 53.4522 91.896 53.4366C92.3126 53.4262 92.6564 53.5772 92.9376 53.8949C93.2293 54.2022 93.3178 54.572 93.2085 54.9991C93.1772 55.1397 93.1928 55.2803 93.2501 55.4157C93.3022 55.5407 93.4012 55.6032 93.5418 55.6032C93.7605 55.6345 94.021 55.447 94.3126 55.0407C94.7137 54.473 94.8855 53.4678 94.8335 52.0199C94.7085 49.5512 94.6043 46.348 94.521 42.4157C94.4376 37.9574 94.396 34.7387 94.396 32.7491C94.396 30.447 94.422 28.7647 94.4793 27.7074C94.4793 27.4574 94.4845 27.0564 94.5001 26.4991C94.5105 25.947 94.5262 25.4991 94.5418 25.1657C94.5522 24.822 94.5887 24.4105 94.646 23.9366C94.698 23.4678 94.7918 23.0512 94.9168 22.6866C95.1095 21.9939 95.547 21.6657 96.2293 21.7074C96.9064 21.7387 97.3647 22.0616 97.6043 22.6866C97.7137 23.0512 97.8647 24.0407 98.0626 25.6657C98.198 27.0564 98.2814 27.9262 98.3126 28.2699C98.4376 29.3845 98.5678 31.1866 98.7085 33.6866C98.7605 34.9939 98.8335 36.5407 98.9168 38.3324C100 38.197 101.563 38.0616 103.604 37.9366C106.422 37.7439 108.646 37.6866 110.271 37.7699C110.172 35.1605 110.136 33.0407 110.167 31.4157C110.235 29.9991 110.323 28.2647 110.438 26.2074C110.464 25.3897 110.531 24.5303 110.646 23.6241C110.781 22.1137 110.896 21.2439 110.979 21.0199C111.214 20.3428 111.651 20.0147 112.292 20.0407C112.927 20.072 113.36 20.3949 113.583 21.0199C113.667 21.2178 113.854 22.0355 114.146 23.4782C114.255 24.1762 114.38 25.0824 114.521 26.2074C114.781 28.0564 115 29.7907 115.167 31.4157C115.25 32.447 115.318 33.473 115.375 34.4991C115.427 35.5147 115.485 36.8324 115.542 38.4574C115.594 40.0824 115.646 41.1032 115.688 41.5199C115.797 44.5616 115.854 47.9157 115.854 51.5824C115.854 52.4157 115.865 54.1657 115.896 56.8324Z" fill="#343A40"/>
<path d="M137.669 35.5616C138.128 35.1866 138.549 35.197 138.94 35.5824C139.341 35.9574 139.362 36.3741 139.003 36.8324C138.086 37.8897 136.648 38.7022 134.69 39.2699C134.492 41.2282 133.742 42.9313 132.44 44.3741C131.659 45.2386 130.701 45.8324 129.565 46.1657C128.44 46.4886 127.336 46.5616 126.253 46.3949C125.169 46.2178 124.159 45.7647 123.232 45.0407C122.315 44.322 121.68 43.3897 121.336 42.2491C120.919 40.9157 121.013 39.4522 121.628 37.8532C122.237 36.2438 123.169 34.9366 124.419 33.9366C124.888 33.0928 125.654 32.4991 126.711 32.1657C127.763 31.8324 128.805 31.7855 129.836 32.0199C131.055 32.2699 132.091 32.8636 132.94 33.7907C133.799 34.7074 134.341 35.7907 134.565 37.0407C134.565 37.0407 134.576 37.0563 134.607 37.0824C135.826 36.723 136.846 36.2178 137.669 35.5616ZM128.419 34.9574C127.654 34.8741 127.154 35.0511 126.919 35.4782C126.836 35.6761 126.924 35.8949 127.19 36.1449C127.607 36.6345 128.503 37.0511 129.878 37.3949C130.237 37.4782 130.648 37.5199 131.107 37.5199C130.826 35.9261 129.93 35.072 128.419 34.9574ZM127.148 43.0616C128.367 43.2282 129.388 42.7438 130.211 41.6032C130.529 41.1866 130.773 40.6813 130.94 40.0824C129.367 40.2491 127.904 39.9938 126.544 39.3116C125.919 38.9938 125.388 38.5824 124.961 38.0824C124.711 38.7647 124.555 39.3428 124.503 39.8116C124.471 40.1866 124.471 40.4991 124.503 40.7491C124.503 40.9574 124.529 41.1188 124.586 41.2282C124.669 41.4261 124.779 41.6136 124.919 41.7907C125.055 41.9574 125.201 42.1136 125.357 42.2491C125.523 42.3897 125.701 42.5199 125.898 42.6449C126.107 42.7595 126.305 42.848 126.503 42.9157C126.695 42.9886 126.909 43.0355 127.148 43.0616Z" fill="#343A40"/>
<path d="M150.809 41.4782C151.169 41.1188 151.611 41.0823 152.143 41.374C152.669 41.6552 152.835 42.0563 152.643 42.5823C151.643 45.348 150.148 47.2177 148.163 48.1865C147.19 48.7594 146.085 49.0355 144.851 49.0198C143.611 49.0094 142.559 48.624 141.684 47.874C141.085 47.3636 140.585 46.7386 140.184 45.999C139.778 45.2646 139.502 44.4469 139.351 43.5407C139.195 42.624 139.101 41.8063 139.059 41.0823C139.018 40.3636 138.997 39.5302 138.997 38.5823C139.023 36.3063 139.377 33.5355 140.059 30.2698C140.601 27.5927 141.236 25.3115 141.976 23.4365C142.268 22.7855 142.622 22.2282 143.038 21.7698C143.466 21.3011 143.981 20.9782 144.58 20.8115C145.174 20.6344 145.799 20.7594 146.455 21.1865C146.913 21.4365 147.273 21.8063 147.538 22.2907C147.815 22.7802 147.981 23.348 148.038 23.999C148.091 24.6552 148.111 25.2073 148.101 25.6657C148.085 26.124 148.049 26.6657 147.997 27.2907C147.622 31.4313 145.981 35.6032 143.08 39.8115C143.106 40.3271 143.132 40.8688 143.163 41.4365C143.163 41.4365 143.174 41.4938 143.205 41.6032V41.7073C143.247 41.848 143.268 41.9469 143.268 41.999C143.32 42.2802 143.377 42.5355 143.434 42.7698C143.486 43.0511 143.57 43.3636 143.684 43.7073C143.71 43.7386 143.726 43.7802 143.726 43.8323C143.726 43.8323 143.736 43.8323 143.768 43.8323C143.82 43.999 143.877 44.1396 143.934 44.249C143.96 44.2802 143.997 44.3323 144.038 44.4157C144.08 44.4886 144.122 44.5511 144.163 44.6032C144.216 44.6605 144.247 44.6865 144.247 44.6865C144.33 44.7698 144.372 44.8271 144.372 44.8532C144.398 44.8844 144.424 44.8948 144.455 44.8948C144.565 44.9782 144.674 45.0615 144.788 45.1448C144.815 45.1448 144.841 45.1605 144.872 45.1865C144.898 45.1865 144.913 45.1865 144.913 45.1865C145.148 45.2698 145.361 45.3115 145.559 45.3115C146.07 45.3115 146.643 45.1448 147.268 44.8115C147.695 44.5615 148.091 44.2594 148.455 43.8948C148.83 43.5355 149.252 43.1032 149.726 42.6032C150.21 42.0927 150.57 41.7177 150.809 41.4782ZM144.455 27.2073C143.69 30.723 143.231 33.8636 143.08 36.624C144.757 33.473 145.757 30.473 146.08 27.624C146.163 26.5719 146.163 25.5511 146.08 24.5615C146.049 24.3844 145.997 24.1448 145.913 23.8532C145.841 23.5511 145.809 23.3688 145.809 23.3115L145.684 23.0615C145.601 23.1188 145.559 23.1448 145.559 23.1448C145.393 23.3688 145.236 23.6657 145.101 24.0407C144.976 24.4157 144.882 24.7698 144.83 25.1032C144.773 25.4261 144.71 25.8063 144.643 26.249C144.57 26.6813 144.507 26.999 144.455 27.2073Z" fill="#343A40"/>
<path d="M161.502 41.0199C161.903 40.6449 162.304 40.6189 162.711 40.9366C163.127 41.2439 163.221 41.6397 163.002 42.1241C162.679 42.7803 162.315 43.3897 161.898 43.9574C161.492 44.5303 161.023 45.0564 160.482 45.5407C159.94 46.0303 159.377 46.4053 158.794 46.6657C158.211 46.9314 157.57 47.0355 156.877 46.9782C156.179 46.9261 155.492 46.6657 154.815 46.2074C154.023 45.7074 153.409 44.9991 152.982 44.0824C152.549 43.1553 152.346 42.1866 152.377 41.1866C152.403 40.5616 152.502 39.5303 152.669 38.0824C152.846 36.598 153.034 35.5564 153.232 34.9574C153.398 34.473 153.716 34.1553 154.19 33.9991C154.659 33.848 155.091 33.9053 155.482 34.1657C155.883 34.4157 156.086 34.8116 156.086 35.3532C156.138 36.1449 156.044 37.7491 155.794 40.1657C155.653 41.697 155.841 42.822 156.357 43.5407C156.659 43.9053 156.992 44.098 157.357 44.1241C157.732 44.1553 158.133 44.0303 158.565 43.7491C158.992 43.4574 159.362 43.1761 159.669 42.8949C159.987 42.6032 160.341 42.2439 160.732 41.8116C161.133 41.3689 161.388 41.1032 161.502 41.0199ZM156.586 31.1657C156.304 31.7386 155.825 32.0199 155.148 32.0199C154.466 32.0199 153.987 31.7386 153.711 31.1657C153.445 30.598 153.445 30.0355 153.711 29.4782C153.987 28.9261 154.466 28.6449 155.148 28.6449C155.825 28.6449 156.304 28.9261 156.586 29.4782C156.877 30.0355 156.877 30.598 156.586 31.1657Z" fill="#343A40"/>
<path d="M180.869 39.9157C181.146 39.4313 181.604 39.2594 182.244 39.3948C182.88 39.5355 183.172 39.9052 183.119 40.499C182.812 42.8896 181.75 44.6813 179.932 45.874C179.099 46.3896 178.192 46.6604 177.224 46.6865C176.265 46.7177 175.359 46.4886 174.515 45.999C173.776 45.5823 173.14 44.9729 172.599 44.1657C171.25 45.5302 169.713 46.2073 167.994 46.2073C167.161 46.249 166.38 46.0823 165.661 45.7073C164.937 45.3323 164.333 44.8479 163.849 44.249C163.359 43.6552 162.963 42.9729 162.661 42.2073C162.369 41.4469 162.208 40.6605 162.182 39.8532C162.125 38.3532 162.463 36.9521 163.203 35.6448C163.88 34.3948 164.911 33.5302 166.286 33.0407C167.786 32.473 169.036 32.2855 170.036 32.4782C170.005 29.4938 170.333 26.624 171.015 23.874C171.151 23.3636 171.463 22.5094 171.953 21.3115C172.229 20.6032 172.609 20.0927 173.099 19.7698C173.583 19.4938 174.057 19.4105 174.515 19.5198C174.974 19.6344 175.354 19.9052 175.661 20.3323C176.119 20.9573 176.5 21.9261 176.807 23.2282C177.099 24.5355 177.286 26.2177 177.369 28.2698C177.536 31.8011 176.896 35.5094 175.453 39.3948C175.312 39.7438 175.166 40.0719 175.015 40.374C175.416 41.624 175.901 42.4521 176.474 42.8532C176.75 43.0511 177.036 43.1552 177.328 43.1657C177.63 43.1813 177.932 43.0979 178.224 42.9157C178.526 42.7386 178.791 42.5511 179.015 42.3532C179.25 42.1448 179.5 41.8636 179.765 41.499C180.041 41.124 180.244 40.848 180.369 40.6657C180.494 40.473 180.661 40.223 180.869 39.9157ZM174.078 21.1865C173.854 21.1605 173.651 21.4365 173.474 22.0198C173.307 22.6032 173.187 23.348 173.119 24.249C173.047 25.1396 173.005 25.8896 172.994 26.499C172.979 27.1136 172.974 27.5823 172.974 27.9157C172.974 30.223 173.255 32.7698 173.828 35.5615C173.88 35.3532 173.922 35.1552 173.953 34.9573C174.786 31.8896 175.166 28.8896 175.099 25.9573C175.099 24.624 175.015 23.6448 174.849 23.0198C174.599 21.8532 174.338 21.2438 174.078 21.1865ZM170.765 41.3948C170.901 41.2854 171.041 41.1448 171.182 40.9782C171.182 40.9521 171.166 40.9365 171.14 40.9365C170.682 39.2854 170.354 37.374 170.161 35.2073C169.838 35.1552 169.515 35.124 169.182 35.124C168.359 35.1813 167.666 35.6136 167.099 36.4157C166.859 36.723 166.687 37.0927 166.578 37.5198L166.536 37.7282C166.505 37.7594 166.494 37.8011 166.494 37.8532C166.494 37.9105 166.484 37.9521 166.474 37.9782C166.458 38.0094 166.453 38.0563 166.453 38.124C166.453 38.1813 166.453 38.2386 166.453 38.2907C166.422 38.4573 166.411 38.5407 166.411 38.5407L166.369 38.6657C166.338 39.2907 166.354 39.7907 166.411 40.1657C166.437 40.2802 166.494 40.4573 166.578 40.7073C166.604 40.8063 166.63 40.9104 166.661 41.0198C166.687 41.0198 166.703 41.0354 166.703 41.0615C166.812 41.2854 166.916 41.4677 167.015 41.6032C167.041 41.6032 167.078 41.6344 167.119 41.6865C167.161 41.7282 167.208 41.7854 167.265 41.8532C167.317 41.9261 167.354 41.9573 167.369 41.9573C167.38 41.9573 167.39 41.9729 167.39 41.999C167.474 42.0563 167.541 42.0979 167.599 42.124C167.807 42.2073 167.963 42.2646 168.078 42.2907C169.005 42.4886 169.901 42.1865 170.765 41.3948Z" fill="#343A40"/>
<path d="M199.153 40.0824C199.445 39.822 199.783 39.7907 200.174 39.999C200.575 40.197 200.705 40.4938 200.57 40.8949C200.387 41.3949 200.137 41.9313 199.82 42.499C199.512 43.072 199.153 43.6449 198.736 44.2282C198.33 44.8115 197.872 45.322 197.361 45.749C196.846 46.1813 196.32 46.5303 195.778 46.7907C195.247 47.0407 194.674 47.124 194.049 47.0407C193.434 46.947 192.867 46.6553 192.341 46.1657C191.825 45.723 191.424 45.1449 191.132 44.4365C190.091 45.4782 188.867 46.0407 187.466 46.124C186.242 46.223 185.158 45.947 184.216 45.2907C183.283 44.624 182.617 43.7907 182.216 42.7907C181.825 41.7803 181.637 40.6761 181.653 39.4782C181.663 38.2855 181.945 37.2022 182.486 36.2282C182.997 35.2438 183.747 34.447 184.736 33.8324C185.736 33.223 186.788 32.9313 187.903 32.9574C189.778 32.9574 191.283 33.6397 192.424 34.999C192.507 34.8063 192.643 34.499 192.841 34.0824C193.033 33.6657 193.179 33.374 193.278 33.2074C193.471 32.749 193.83 32.6397 194.361 32.874C194.887 33.098 195.059 33.4522 194.882 33.9365C194.309 35.7282 193.872 37.4365 193.57 39.0615C193.111 41.2699 193.205 42.874 193.861 43.874C194.07 44.1813 194.309 44.374 194.591 44.4574C194.882 44.5303 195.163 44.4782 195.445 44.3115C195.721 44.1345 195.997 43.9105 196.278 43.6449C196.57 43.3688 196.861 43.0407 197.153 42.6657C197.455 42.2803 197.721 41.9261 197.945 41.6032C198.179 41.2699 198.408 40.9678 198.632 40.6865C198.867 40.3949 199.038 40.197 199.153 40.0824ZM186.882 42.4157C187.101 42.5303 187.33 42.5824 187.57 42.5824C187.82 42.5824 188.038 42.5563 188.236 42.499C188.429 42.447 188.622 42.3532 188.82 42.2282C189.028 42.1032 189.205 41.973 189.361 41.8324C189.528 41.6813 189.7 41.499 189.882 41.2907C190.059 41.0824 190.205 40.9053 190.32 40.749C190.445 40.5824 190.575 40.3897 190.716 40.1657C190.742 39.999 190.768 39.8428 190.799 39.6865C190.934 38.8688 191.179 37.9886 191.528 37.0407C189.929 35.7386 188.518 35.4365 187.299 36.1449C186.674 36.5199 186.2 37.0615 185.882 37.7699C185.632 38.2855 185.492 38.8532 185.466 39.4782C185.466 39.7022 185.466 39.9157 185.466 40.124C185.466 40.2386 185.466 40.2907 185.466 40.2907C185.492 40.322 185.507 40.374 185.507 40.4574C185.533 40.598 185.575 40.7699 185.632 40.9782C185.684 41.1188 185.726 41.2178 185.757 41.2699C186.049 41.8428 186.424 42.223 186.882 42.4157Z" fill="#343A40"/>
<path d="M211.425 45.9991C211.8 46.2647 211.993 46.6189 212.008 47.0616C212.019 47.4939 211.826 47.8429 211.425 48.1033C211.061 48.3272 210.633 48.4731 210.133 48.5408C209.633 48.6137 209.008 48.6449 208.258 48.6449C207.508 48.6449 207.029 48.6606 206.821 48.6866C206.738 48.6866 206.514 48.697 206.154 48.7074C205.805 48.7231 205.535 48.7439 205.342 48.7699C205.342 48.7699 205.29 48.7804 205.196 48.7908C205.113 48.8064 205.071 48.8116 205.071 48.8116C205.014 48.8116 204.946 48.8272 204.863 48.8533L204.613 48.8949C204.154 48.9939 203.764 49.0616 203.446 49.1033C203.139 49.1449 202.758 49.1606 202.3 49.1449C201.852 49.1345 201.472 49.0772 201.154 48.9783C200.847 48.8689 200.55 48.6762 200.258 48.3949C199.977 48.1033 199.779 47.7491 199.654 47.3324C199.597 47.1241 199.571 46.9262 199.571 46.7283C199.571 46.5356 199.592 46.3324 199.633 46.1241C199.675 45.9054 199.717 45.7074 199.758 45.5408C199.811 45.3637 199.894 45.1606 200.008 44.9366C200.118 44.7179 200.201 44.5356 200.258 44.3949C200.311 44.2439 200.404 44.0512 200.529 43.8116C200.665 43.5616 200.764 43.3949 200.821 43.3116C201.472 42.0095 202.139 40.7856 202.821 39.6449C203.581 38.3949 204.394 37.2179 205.258 36.1033C205.477 35.8272 205.743 35.5304 206.05 35.2074C205.519 35.1241 204.998 35.072 204.488 35.0408C204.373 35.0147 202.977 35.0408 200.3 35.1241C199.993 35.1241 199.748 34.9939 199.571 34.7283C199.404 34.4522 199.363 34.1658 199.446 33.8741C199.529 33.572 199.727 33.3897 200.05 33.3324C201.633 33.0304 203.425 32.8064 205.425 32.6658C205.883 32.6241 206.738 32.6241 207.988 32.6658C208.805 32.6658 209.342 32.7491 209.592 32.9158C210.102 33.197 210.41 33.6189 210.508 34.1866C210.618 34.7595 210.576 35.3012 210.383 35.8116C210.201 36.3272 209.951 36.8116 209.633 37.2699C208.269 39.2856 207.389 40.6189 206.988 41.2699C206.139 42.6345 205.321 44.1397 204.529 45.7908C204.581 45.7647 204.623 45.7491 204.654 45.7491C204.706 45.7491 205.196 45.7387 206.113 45.7074C206.331 45.6814 206.758 45.6397 207.383 45.5824C208.008 45.5304 208.508 45.4939 208.883 45.4783C209.269 45.4679 209.717 45.4991 210.217 45.5824C210.717 45.6658 211.118 45.8064 211.425 45.9991Z" fill="#343A40"/>
<path d="M228.618 40.1241C228.894 39.7491 229.264 39.7022 229.722 39.9782C230.18 40.2439 230.326 40.5928 230.16 41.0199C229.535 42.5199 228.576 43.8064 227.285 44.8741C226.003 45.947 224.587 46.6189 223.035 46.8949C221.41 47.1605 220.097 47.1189 219.097 46.7699C217.566 46.1762 216.42 45.1553 215.66 43.7074C215.144 42.6814 214.831 41.572 214.722 40.3741C214.623 39.1814 214.785 37.9991 215.201 36.8324C215.618 35.6657 216.29 34.7595 217.222 34.1032C218.649 33.1032 220.076 32.7907 221.493 33.1657C222.962 33.572 223.686 34.6657 223.66 36.4574C223.66 37.8741 223.253 39.1032 222.451 40.1449C221.644 41.1866 220.576 41.8324 219.243 42.0824C219.602 42.7387 220.118 43.1449 220.785 43.3116C221.451 43.4678 222.253 43.4939 223.201 43.3949C224.253 43.2855 225.066 43.0355 225.639 42.6449C227.108 41.5928 228.102 40.7491 228.618 40.1241ZM220.68 35.9366C219.858 36.2595 219.274 36.8689 218.93 37.7699C218.597 38.6605 218.514 39.5824 218.68 40.5407C219.899 40.1553 220.785 39.447 221.326 38.4157C221.686 37.7647 221.826 37.1137 221.743 36.4574C221.712 36.0824 221.618 35.8637 221.451 35.7907C221.285 35.723 221.024 35.7699 220.68 35.9366Z" fill="#343A40"/>
</svg>
