<svg width="99" height="85" viewBox="0 0 99 85" fill="none" xmlns="http://www.w3.org/2000/svg">
<mask id="mask0_130_442" style="mask-type:luminance" maskUnits="userSpaceOnUse" x="0" y="0" width="99" height="85">
<path d="M0 0H98.9479V84.9427H0V0Z" fill="white"/>
</mask>
<g mask="url(#mask0_130_442)">
<path d="M76.3958 68.6458C76.3958 68.7604 76.276 68.8802 76.2135 69C72.1927 74.1563 67.0573 78.2188 61.3073 81.0104C55.5833 83.849 49.1771 85.3333 42.6771 85.3333C31.1406 85.3333 20.6771 80.776 13.0052 73.3229C9.75521 70.6042 6.91667 66.8802 4.59896 62.0208C1.66667 56.1771 0 49.6146 0 42.6354C0 41.9844 0 41.2708 0.0625 40.6354C0.119792 39.5625 0.177084 38.5729 0.296875 37.5625C1.48958 27.8125 5.90625 19.1094 12.4896 12.4896C20.2188 4.79688 30.8646 0 42.6979 0C54.4688 0 65.1146 4.79687 72.8438 12.4688C80.5365 20.2188 85.3125 30.8646 85.3125 42.6198C85.3125 43.8073 85.2552 44.974 85.1927 46.1042C85.0781 47.2969 84.9583 48.4063 84.7813 49.5938C84.6615 50.3073 83.9479 50.7813 83.2917 50.6667C82.5781 50.5469 82.1042 49.8906 82.224 49.1771C82.3385 48.1094 82.5208 47 82.5781 45.9271C82.6979 44.8594 82.7552 43.7448 82.7552 42.6198C82.7552 31.5573 78.2552 21.5677 70.9844 14.2917C63.7083 7.01563 53.7188 2.57813 42.6563 2.57813C31.5365 2.57813 21.5469 7.01563 14.2708 14.2917C12.6094 16.0156 11.0833 17.8385 9.71354 19.7813C10.6667 18.9479 11.6563 18.2344 12.6667 17.5417C17.0469 14.7083 22.0052 13.1615 26.6823 12.7448C32.349 12.2708 37.6823 13.5208 41.0521 16.4115C53.2396 26.6406 46.3646 39.349 46.026 40C45.9688 40.0625 45.9063 40.1198 45.9063 40.1771L45.849 40.2396V40.2969H45.7917V40.3594H45.7292V40.4167C45.6719 40.4167 45.6094 40.474 45.5521 40.474V40.5365H45.4896L45.4323 40.5938C45.2552 40.6562 45.0729 40.7135 44.8958 40.7135H44.8385C44.7188 40.7135 44.6615 40.7135 44.599 40.7135H44.5417V40.6563C44.3594 40.6563 44.1823 40.5365 44.0625 40.4167H44.0052V40.3594H43.9479L43.8854 40.2969V40.2396C43.8281 40.2396 43.8281 40.1771 43.7656 40.1771V40.1198L43.7083 40.0625V40.0417C43.5885 39.8594 43.5885 39.6823 43.5313 39.5052V39.4479L43.5885 39.3854V39.3281C43.5885 38.5521 43.5313 31.6354 35.4219 32.8229C32.5885 33.2396 30.5052 36.3125 29.6354 40.2188C29.2188 42.1615 29.099 44.3021 29.276 46.4219C29.5156 48.5417 30.1094 50.625 31.0417 52.4479C33.1615 56.5938 37.3646 59.6042 44.1615 59.3073C46.8802 59.1875 49.5938 58.7708 52.2708 58.2344C54.9271 57.7604 57.5833 57.1094 60.1406 56.474C74.9844 52.8073 88.1667 49.5573 98.9323 71.1979C99.2292 71.8542 98.9896 72.625 98.3385 72.9271C97.8594 73.1615 97.2656 73.0417 96.9115 72.6875C96.2552 72.0729 87.2188 65.0938 76.3958 68.6458ZM64.1042 24.3021C66.8177 24.3021 69.3177 25.4323 71.1406 27.1979C72.9063 29.0208 74.0365 31.5156 74.0365 34.2344C74.0365 36.9479 72.9063 39.4479 71.1406 41.2708C69.3177 43.0313 66.8177 44.1615 64.1042 44.1615C61.3906 44.1615 58.8906 43.0313 57.0677 41.2708C55.3021 39.4479 54.1719 36.9479 54.1719 34.2344C54.1719 31.5156 55.3021 29.0208 57.0677 27.1979C58.8906 25.4323 61.3698 24.3021 64.1042 24.3021ZM69.2969 29.0417C67.9323 27.7292 66.1042 26.9167 64.0833 26.9167C62.0625 26.9167 60.2396 27.75 58.8698 29.0417C57.5625 30.4063 56.75 32.2292 56.75 34.25C56.75 36.2552 57.5833 38.099 58.8698 39.4635C60.2396 40.776 62.0625 41.5885 64.0833 41.5885C66.1042 41.5885 67.9323 40.7552 69.2969 39.4635C70.6042 38.099 71.4167 36.276 71.4167 34.25C71.4375 32.2292 70.6042 30.3854 69.2969 29.0417ZM42.1615 31.2188C40.6146 28.1458 37.6042 25.6719 31.5781 26.6615C29.6927 27.0156 27.9688 27.5521 26.4844 28.2656C22.5781 30.0885 19.9792 33.125 18.4948 36.5521C17.0052 40.0417 16.6094 43.9427 17.2448 47.5521C17.4844 49.2188 18.0208 50.8021 18.6719 52.2292C20.6146 56.375 24.6406 58.849 30.0313 59.8646C31.7969 60.2188 33.7552 60.3958 35.8177 60.4583C32.5677 58.9688 30.2708 56.5521 28.7813 53.7188C27.651 51.5365 27.0156 49.099 26.7813 46.7396C26.5417 44.3229 26.6615 41.8854 27.1979 39.7031C28.3281 34.7865 31.1615 30.901 35.0677 30.3073C38.2552 29.7917 40.5573 30.2656 42.1615 31.2188ZM52.8646 60.7917C44.0052 62.974 35.9583 63.6302 29.5156 62.401C23.3698 61.2083 18.75 58.2552 16.3958 53.3021C15.5625 51.6979 15.026 49.8698 14.7292 47.9896C14.0156 43.9635 14.4323 39.526 16.1563 35.5781C17.8802 31.6354 20.8906 28.125 25.375 26.0052C27.099 25.1719 29.0417 24.5781 31.1615 24.1823C40.8542 22.5781 44.3438 28.0885 45.5885 32.9844C46.0677 28.901 45.2917 23.349 39.4479 18.4323C36.6094 16.0156 31.9323 14.9479 26.9167 15.3646C22.6563 15.776 18.1198 17.1875 14.151 19.8021C10.1875 22.3385 6.76042 26.0677 4.69792 31.0417C3.86458 32.9844 3.27083 35.2448 2.93229 37.6042C2.81771 38.849 2.69792 40.1406 2.63542 41.3906C2.57812 45.5885 3.22917 50.3698 4.9375 55.6979C5.41146 57.0677 5.88542 58.3542 6.42188 59.6042C6.48438 59.724 6.59896 59.8438 6.66146 59.9635C7.72917 61.8438 10.8021 66.5208 17.4219 69.2969C24.1615 72.0729 34.6302 72.7865 50.3073 66.5833C66.6823 60.1406 76.9688 58.9479 84.0677 60.5573C86.6042 61.0938 88.6823 61.9844 90.5052 63.0313C81.9219 53.8177 71.875 56.2969 60.875 59.0104C58.2396 59.6042 55.5833 60.2604 52.8646 60.7917ZM91.3021 66.7031C89.1771 65.0365 86.6823 63.6875 83.4896 62.974C76.8698 61.5469 67.0573 62.6771 51.2604 68.9427C34.7656 75.4427 23.6458 74.6094 16.375 71.599C15.3646 71.1823 14.4323 70.7031 13.599 70.2292L13.6563 70.2865C24.9583 80.8125 42.2188 78.276 55.8177 73.8958C62.0833 71.8958 67.7135 69.5156 71.599 67.8125C72.4896 67.4531 73.2604 67.099 73.8385 66.8594C80.5938 64.0469 86.7396 65.0365 91.3021 66.7031ZM27.6146 79.8229C32.2917 81.7083 37.3646 82.7188 42.6979 82.7188C48.8438 82.7188 54.8281 81.2917 60.1979 78.6927C64.2813 76.75 68.0104 74.0729 71.2031 70.8229C67.4167 72.4271 62.3385 74.5521 56.5938 76.375C47.5938 79.2292 37.125 81.3698 27.6146 79.8229Z" fill="#007BFF"/>
</g>
</svg>
