<svg width="140" height="44" viewBox="0 0 140 44" fill="none" xmlns="http://www.w3.org/2000/svg">
<path d="M25.4243 37.3591C25.4503 38.0935 25.4503 38.9894 25.4243 40.0466C25.393 41.0987 25.2628 41.9841 25.0285 42.6925C24.7785 43.3435 24.2576 43.755 23.466 43.9216C22.6847 44.0987 22.1326 43.8383 21.7993 43.13C21.367 42.0727 21.0805 40.406 20.9451 38.13C20.9139 37.9633 20.9034 37.8383 20.9034 37.755C20.7212 34.8539 20.6014 33.1039 20.5493 32.505C20.268 28.5466 20.0753 25.1248 19.9659 22.2341C19.9659 22.1925 19.9659 22.1508 19.9659 22.1091C19.9659 22.0675 19.9659 22.0362 19.9659 22.005C19.4243 22.0362 17.2003 22.1091 13.2993 22.2341C12.7993 22.2654 12.0128 22.2966 10.9451 22.3383C9.8722 22.38 9.08053 22.4008 8.57012 22.4008C8.57012 22.5154 8.57012 22.6404 8.57012 22.7758C8.57012 22.9164 8.57012 23.0466 8.57012 23.1716C8.57012 23.2862 8.57532 23.4008 8.59095 23.5258C8.60137 23.6508 8.61178 23.7706 8.61178 23.88C8.61178 24.1456 8.65345 25.1821 8.73678 26.9841C8.83053 28.7914 8.86699 29.8331 8.84095 30.1091C8.82532 30.3748 8.80449 31.4008 8.77845 33.1925C8.69512 34.8331 8.24199 36.2862 7.42428 37.5466C6.60137 38.8071 5.42428 39.4737 3.88262 39.5466C2.60137 39.5727 1.54928 39.031 0.715949 37.9216C-0.127802 36.8123 -0.226759 35.7029 0.424282 34.5883C0.689907 34.1873 1.02324 33.9789 1.42428 33.9633C1.84095 33.9529 2.1847 34.1039 2.46595 34.4216C2.75762 34.7289 2.84616 35.0987 2.73678 35.5258C2.70553 35.6664 2.72116 35.8071 2.77845 35.9425C2.83053 36.0675 2.92949 36.13 3.07012 36.13C3.28886 36.1612 3.54928 35.9737 3.84095 35.5675C4.24199 34.9998 4.41386 33.9946 4.36178 32.5466C4.23678 30.0779 4.13262 26.8748 4.04928 22.9425C3.96595 18.4841 3.92428 15.2654 3.92428 13.2758C3.92428 10.9737 3.95032 9.29144 4.00762 8.23414C4.00762 7.98414 4.01282 7.5831 4.02845 7.02581C4.03886 6.47373 4.05449 6.02581 4.07012 5.69248C4.08053 5.34873 4.11699 4.93727 4.17428 4.46331C4.22637 3.99456 4.32012 3.57789 4.44512 3.21331C4.63782 2.5206 5.07532 2.19248 5.75762 2.23414C6.4347 2.26539 6.89303 2.58831 7.13262 3.21331C7.24199 3.57789 7.39303 4.56748 7.59095 6.19248C7.72637 7.5831 7.8097 8.45289 7.84095 8.79664C7.96595 9.91123 8.09616 11.7133 8.23678 14.2133C8.28886 15.5206 8.36178 17.0675 8.44512 18.8591C9.52845 18.7237 11.0909 18.5883 13.1326 18.4633C15.9503 18.2706 18.1743 18.2133 19.7993 18.2966C19.7003 15.6873 19.6639 13.5675 19.6951 11.9425C19.7628 10.5258 19.8514 8.79144 19.9659 6.73414C19.992 5.91644 20.0597 5.05706 20.1743 4.15081C20.3097 2.64039 20.4243 1.7706 20.5076 1.54664C20.742 0.869559 21.1795 0.541435 21.8201 0.567476C22.4555 0.598727 22.8878 0.921643 23.1118 1.54664C23.1951 1.74456 23.3826 2.56227 23.6743 4.00498C23.7837 4.70289 23.9087 5.60914 24.0493 6.73414C24.3097 8.5831 24.5285 10.3175 24.6951 11.9425C24.7785 12.9737 24.8462 13.9998 24.9035 15.0258C24.9555 16.0414 25.0128 17.3591 25.0701 18.9841C25.1222 20.6091 25.1743 21.63 25.216 22.0466C25.3253 25.0883 25.3826 28.4425 25.3826 32.1091C25.3826 32.9425 25.393 34.6925 25.4243 37.3591Z" fill="#343A40"/>
<path d="M47.1976 16.0883C47.6559 15.7133 48.0778 15.7237 48.4684 16.1091C48.8695 16.4841 48.8903 16.9008 48.5309 17.3591C47.6143 18.4164 46.1768 19.2289 44.2184 19.7966C44.0205 21.755 43.2705 23.4581 41.9684 24.9008C41.1872 25.7654 40.2288 26.3591 39.0934 26.6925C37.9684 27.0154 36.8643 27.0883 35.7809 26.9216C34.6976 26.7445 33.6872 26.2914 32.7601 25.5675C31.8434 24.8487 31.208 23.9164 30.8643 22.7758C30.4476 21.4425 30.5413 19.9789 31.1559 18.38C31.7653 16.7706 32.6976 15.4633 33.9476 14.4633C34.4163 13.6195 35.182 13.0258 36.2393 12.6925C37.2913 12.3591 38.333 12.3122 39.3643 12.5466C40.583 12.7966 41.6195 13.3904 42.4684 14.3175C43.3278 15.2341 43.8695 16.3175 44.0934 17.5675C44.0934 17.5675 44.1038 17.5831 44.1351 17.6091C45.3538 17.2497 46.3747 16.7445 47.1976 16.0883ZM37.9476 15.4841C37.182 15.4008 36.682 15.5779 36.4476 16.005C36.3643 16.2029 36.4528 16.4216 36.7184 16.6716C37.1351 17.1612 38.0309 17.5779 39.4059 17.9216C39.7653 18.005 40.1768 18.0466 40.6351 18.0466C40.3538 16.4529 39.458 15.5987 37.9476 15.4841ZM36.6768 23.5883C37.8955 23.755 38.9163 23.2706 39.7393 22.13C40.057 21.7133 40.3018 21.2081 40.4684 20.6091C38.8955 20.7758 37.432 20.5206 36.0726 19.8383C35.4476 19.5206 34.9163 19.1091 34.4893 18.6091C34.2393 19.2914 34.083 19.8695 34.0309 20.3383C33.9997 20.7133 33.9997 21.0258 34.0309 21.2758C34.0309 21.4841 34.057 21.6456 34.1143 21.755C34.1976 21.9529 34.307 22.1404 34.4476 22.3175C34.583 22.4841 34.7288 22.6404 34.8851 22.7758C35.0518 22.9164 35.2288 23.0466 35.4268 23.1716C35.6351 23.2862 35.833 23.3747 36.0309 23.4425C36.2236 23.5154 36.4372 23.5622 36.6768 23.5883Z" fill="#343A40"/>
<path d="M60.3376 22.0049C60.697 21.6455 61.1397 21.6091 61.671 21.9007C62.197 22.182 62.3637 22.583 62.171 23.1091C61.171 25.8747 59.6762 27.7445 57.6918 28.7132C56.7179 29.2861 55.6137 29.5622 54.3793 29.5466C53.1397 29.5361 52.0876 29.1507 51.2126 28.4007C50.6137 27.8903 50.1137 27.2653 49.7126 26.5257C49.3064 25.7914 49.0304 24.9736 48.8793 24.0674C48.7231 23.1507 48.6293 22.333 48.5876 21.6091C48.546 20.8903 48.5251 20.057 48.5251 19.1091C48.5512 16.833 48.9054 14.0622 49.5876 10.7966C50.1293 8.11948 50.7647 5.83823 51.5043 3.96323C51.796 3.31219 52.1501 2.7549 52.5668 2.29657C52.9939 1.82781 53.5095 1.5049 54.1085 1.33823C54.7022 1.16115 55.3272 1.28615 55.9835 1.71323C56.4418 1.96323 56.8012 2.33302 57.0668 2.8174C57.3429 3.30698 57.5095 3.87469 57.5668 4.52573C57.6189 5.18198 57.6397 5.73407 57.6293 6.1924C57.6137 6.65073 57.5772 7.1924 57.5251 7.8174C57.1501 11.958 55.5095 16.1299 52.6085 20.3382C52.6345 20.8539 52.6606 21.3955 52.6918 21.9632C52.6918 21.9632 52.7022 22.0205 52.7335 22.1299V22.2341C52.7751 22.3747 52.796 22.4736 52.796 22.5257C52.8481 22.807 52.9054 23.0622 52.9626 23.2966C53.0147 23.5778 53.0981 23.8903 53.2126 24.2341C53.2387 24.2653 53.2543 24.307 53.2543 24.3591C53.2543 24.3591 53.2647 24.3591 53.296 24.3591C53.3481 24.5257 53.4054 24.6664 53.4626 24.7757C53.4887 24.807 53.5251 24.8591 53.5668 24.9424C53.6085 25.0153 53.6501 25.0778 53.6918 25.1299C53.7439 25.1872 53.7751 25.2132 53.7751 25.2132C53.8585 25.2966 53.9001 25.3539 53.9001 25.3799C53.9262 25.4111 53.9522 25.4216 53.9835 25.4216C54.0929 25.5049 54.2022 25.5882 54.3168 25.6716C54.3429 25.6716 54.3689 25.6872 54.4001 25.7132C54.4262 25.7132 54.4418 25.7132 54.4418 25.7132C54.6762 25.7966 54.8897 25.8382 55.0876 25.8382C55.5981 25.8382 56.171 25.6716 56.796 25.3382C57.2231 25.0882 57.6189 24.7861 57.9835 24.4216C58.3585 24.0622 58.7804 23.6299 59.2543 23.1299C59.7387 22.6195 60.0981 22.2445 60.3376 22.0049ZM53.9835 7.73407C53.2179 11.2497 52.7595 14.3903 52.6085 17.1507C54.2856 13.9997 55.2856 10.9997 55.6085 8.15073C55.6918 7.09865 55.6918 6.07781 55.6085 5.08823C55.5772 4.91115 55.5251 4.67157 55.4418 4.3799C55.3689 4.07781 55.3376 3.89552 55.3376 3.83823L55.2126 3.58823C55.1293 3.64552 55.0876 3.67157 55.0876 3.67157C54.921 3.89552 54.7647 4.1924 54.6293 4.5674C54.5043 4.9424 54.4106 5.29657 54.3585 5.6299C54.3012 5.95281 54.2387 6.33302 54.171 6.77573C54.0981 7.20802 54.0356 7.52573 53.9835 7.73407Z" fill="#343A40"/>
<path d="M71.0307 21.5466C71.4318 21.1716 71.8328 21.1456 72.239 21.4633C72.6557 21.7706 72.7495 22.1664 72.5307 22.6508C72.2078 23.307 71.8432 23.9164 71.4265 24.4841C71.0203 25.057 70.5515 25.5831 70.0099 26.0675C69.4682 26.557 68.9057 26.932 68.3224 27.1925C67.739 27.4581 67.0984 27.5623 66.4057 27.505C65.7078 27.4529 65.0203 27.1925 64.3432 26.7341C63.5515 26.2341 62.937 25.5258 62.5099 24.6091C62.0776 23.682 61.8745 22.7133 61.9057 21.7133C61.9318 21.0883 62.0307 20.057 62.1974 18.6091C62.3745 17.1248 62.562 16.0831 62.7599 15.4841C62.9265 14.9998 63.2443 14.682 63.7182 14.5258C64.187 14.3748 64.6193 14.432 65.0099 14.6925C65.4109 14.9425 65.614 15.3383 65.614 15.88C65.6661 16.6716 65.5724 18.2758 65.3224 20.6925C65.1818 22.2237 65.3693 23.3487 65.8849 24.0675C66.187 24.432 66.5203 24.6248 66.8849 24.6508C67.2599 24.682 67.6609 24.557 68.0932 24.2758C68.5203 23.9841 68.8901 23.7029 69.1974 23.4216C69.5151 23.13 69.8693 22.7706 70.2599 22.3383C70.6609 21.8956 70.9161 21.63 71.0307 21.5466ZM66.114 11.6925C65.8328 12.2654 65.3536 12.5466 64.6765 12.5466C63.9943 12.5466 63.5151 12.2654 63.239 11.6925C62.9734 11.1248 62.9734 10.5623 63.239 10.005C63.5151 9.45288 63.9943 9.17163 64.6765 9.17163C65.3536 9.17163 65.8328 9.45288 66.114 10.005C66.4057 10.5623 66.4057 11.1248 66.114 11.6925Z" fill="#343A40"/>
<path d="M90.3978 20.4424C90.6739 19.958 91.1322 19.7861 91.7728 19.9216C92.4082 20.0622 92.6999 20.432 92.6478 21.0257C92.3405 23.4164 91.278 25.208 89.4603 26.4007C88.627 26.9163 87.7207 27.1872 86.752 27.2132C85.7937 27.2445 84.8874 27.0153 84.0437 26.5257C83.3041 26.1091 82.6687 25.4997 82.127 24.6924C80.778 26.057 79.2416 26.7341 77.5228 26.7341C76.6895 26.7757 75.9082 26.6091 75.1895 26.2341C74.4655 25.8591 73.8614 25.3747 73.377 24.7757C72.8874 24.182 72.4916 23.4997 72.1895 22.7341C71.8978 21.9736 71.7364 21.1872 71.7103 20.3799C71.653 18.8799 71.9916 17.4789 72.7312 16.1716C73.4082 14.9216 74.4395 14.057 75.8145 13.5674C77.3145 12.9997 78.5645 12.8122 79.5645 13.0049C79.5332 10.0205 79.8614 7.15072 80.5437 4.40072C80.6791 3.89031 80.9916 3.03614 81.4812 1.83822C81.7572 1.12989 82.1374 0.619474 82.627 0.296558C83.1114 0.0205167 83.5853 -0.0628166 84.0437 0.0465581C84.502 0.161141 84.8822 0.431975 85.1895 0.859058C85.6478 1.48406 86.028 2.45281 86.3353 3.75489C86.627 5.06218 86.8145 6.74447 86.8978 8.79656C87.0645 12.3278 86.4239 16.0361 84.9812 19.9216C84.8405 20.2705 84.6947 20.5986 84.5437 20.9007C84.9447 22.1507 85.4291 22.9788 86.002 23.3799C86.278 23.5778 86.5645 23.682 86.8562 23.6924C87.1582 23.708 87.4603 23.6247 87.752 23.4424C88.0541 23.2653 88.3197 23.0778 88.5437 22.8799C88.778 22.6716 89.028 22.3903 89.2937 22.0257C89.5697 21.6507 89.7728 21.3747 89.8978 21.1924C90.0228 20.9997 90.1895 20.7497 90.3978 20.4424ZM83.6062 1.71322C83.3822 1.68718 83.1791 1.96322 83.002 2.54656C82.8353 3.12989 82.7155 3.87468 82.6478 4.77572C82.5749 5.66635 82.5332 6.41635 82.5228 7.02573C82.5072 7.64031 82.502 8.10906 82.502 8.44239C82.502 10.7497 82.7832 13.2966 83.3562 16.0882C83.4082 15.8799 83.4499 15.682 83.4812 15.4841C84.3145 12.4164 84.6947 9.41635 84.627 6.48406C84.627 5.15073 84.5437 4.17156 84.377 3.54656C84.127 2.37989 83.8666 1.77052 83.6062 1.71322ZM80.2937 21.9216C80.4291 21.8122 80.5697 21.6716 80.7103 21.5049C80.7103 21.4788 80.6947 21.4632 80.6687 21.4632C80.2103 19.8122 79.8822 17.9007 79.6895 15.7341C79.3666 15.682 79.0437 15.6507 78.7103 15.6507C77.8874 15.708 77.1947 16.1403 76.627 16.9424C76.3874 17.2497 76.2155 17.6195 76.1062 18.0466L76.0645 18.2549C76.0332 18.2861 76.0228 18.3278 76.0228 18.3799C76.0228 18.4372 76.0124 18.4789 76.002 18.5049C75.9864 18.5361 75.9812 18.583 75.9812 18.6507C75.9812 18.708 75.9812 18.7653 75.9812 18.8174C75.9499 18.9841 75.9395 19.0674 75.9395 19.0674L75.8978 19.1924C75.8666 19.8174 75.8822 20.3174 75.9395 20.6924C75.9655 20.807 76.0228 20.9841 76.1062 21.2341C76.1322 21.333 76.1582 21.4372 76.1895 21.5466C76.2155 21.5466 76.2312 21.5622 76.2312 21.5882C76.3405 21.8122 76.4447 21.9945 76.5437 22.1299C76.5697 22.1299 76.6062 22.1611 76.6478 22.2132C76.6895 22.2549 76.7364 22.3122 76.7937 22.3799C76.8457 22.4528 76.8822 22.4841 76.8978 22.4841C76.9082 22.4841 76.9187 22.4997 76.9187 22.5257C77.002 22.583 77.0697 22.6247 77.127 22.6507C77.3353 22.7341 77.4916 22.7913 77.6062 22.8174C78.5332 23.0153 79.4291 22.7132 80.2937 21.9216Z" fill="#343A40"/>
<path d="M108.681 20.6091C108.973 20.3487 109.312 20.3174 109.702 20.5258C110.103 20.7237 110.233 21.0206 110.098 21.4216C109.916 21.9216 109.666 22.4581 109.348 23.0258C109.041 23.5987 108.681 24.1716 108.265 24.7549C107.858 25.3383 107.4 25.8487 106.89 26.2758C106.374 26.7081 105.848 27.057 105.306 27.3174C104.775 27.5674 104.202 27.6508 103.577 27.5674C102.963 27.4737 102.395 27.182 101.869 26.6924C101.353 26.2497 100.952 25.6716 100.66 24.9633C99.6188 26.0049 98.3949 26.5674 96.9938 26.6508C95.7699 26.7497 94.6865 26.4737 93.7438 25.8174C92.8115 25.1508 92.1449 24.3174 91.7438 23.3174C91.3532 22.307 91.1657 21.2029 91.1813 20.0049C91.1917 18.8122 91.473 17.7289 92.0147 16.7549C92.5251 15.7706 93.2751 14.9737 94.2647 14.3591C95.2647 13.7497 96.3167 13.4581 97.4313 13.4841C99.3063 13.4841 100.812 14.1664 101.952 15.5258C102.035 15.3331 102.171 15.0258 102.369 14.6091C102.562 14.1924 102.707 13.9008 102.806 13.7341C102.999 13.2758 103.358 13.1664 103.89 13.4008C104.416 13.6247 104.588 13.9789 104.41 14.4633C103.838 16.2549 103.4 17.9633 103.098 19.5883C102.64 21.7966 102.733 23.4008 103.39 24.4008C103.598 24.7081 103.838 24.9008 104.119 24.9841C104.41 25.057 104.692 25.0049 104.973 24.8383C105.249 24.6612 105.525 24.4372 105.806 24.1716C106.098 23.8956 106.39 23.5674 106.681 23.1924C106.983 22.807 107.249 22.4529 107.473 22.1299C107.707 21.7966 107.937 21.4945 108.16 21.2133C108.395 20.9216 108.567 20.7237 108.681 20.6091ZM96.4105 22.9424C96.6292 23.057 96.8584 23.1091 97.098 23.1091C97.348 23.1091 97.5667 23.0831 97.7647 23.0258C97.9574 22.9737 98.1501 22.8799 98.348 22.7549C98.5563 22.6299 98.7334 22.4997 98.8897 22.3591C99.0563 22.2081 99.2282 22.0258 99.4105 21.8174C99.5876 21.6091 99.7334 21.432 99.848 21.2758C99.973 21.1091 100.103 20.9164 100.244 20.6924C100.27 20.5258 100.296 20.3695 100.327 20.2133C100.463 19.3956 100.707 18.5154 101.056 17.5674C99.4574 16.2654 98.0459 15.9633 96.8272 16.6716C96.2022 17.0466 95.7282 17.5883 95.4105 18.2966C95.1605 18.8122 95.0199 19.3799 94.9938 20.0049C94.9938 20.2289 94.9938 20.4424 94.9938 20.6508C94.9938 20.7654 94.9938 20.8174 94.9938 20.8174C95.0199 20.8487 95.0355 20.9008 95.0355 20.9841C95.0615 21.1247 95.1032 21.2966 95.1605 21.5049C95.2126 21.6456 95.2542 21.7445 95.2855 21.7966C95.5772 22.3695 95.9522 22.7497 96.4105 22.9424Z" fill="#343A40"/>
<path d="M120.953 26.5258C121.328 26.7915 121.521 27.1456 121.537 27.5883C121.547 28.0206 121.354 28.3696 120.953 28.63C120.589 28.854 120.162 28.9998 119.662 29.0675C119.162 29.1404 118.537 29.1717 117.787 29.1717C117.037 29.1717 116.558 29.1873 116.349 29.2133C116.266 29.2133 116.042 29.2238 115.683 29.2342C115.334 29.2498 115.063 29.2706 114.87 29.2967C114.87 29.2967 114.818 29.3071 114.724 29.3175C114.641 29.3331 114.599 29.3383 114.599 29.3383C114.542 29.3383 114.474 29.354 114.391 29.38L114.141 29.4217C113.683 29.5206 113.292 29.5883 112.974 29.63C112.667 29.6717 112.287 29.6873 111.828 29.6717C111.381 29.6613 111 29.604 110.683 29.505C110.375 29.3956 110.078 29.2029 109.787 28.9217C109.506 28.63 109.308 28.2758 109.183 27.8592C109.125 27.6508 109.099 27.4529 109.099 27.255C109.099 27.0623 109.12 26.8592 109.162 26.6508C109.203 26.4321 109.245 26.2342 109.287 26.0675C109.339 25.8904 109.422 25.6873 109.537 25.4633C109.646 25.2446 109.729 25.0623 109.787 24.9217C109.839 24.7706 109.933 24.5779 110.058 24.3383C110.193 24.0883 110.292 23.9217 110.349 23.8383C111 22.5363 111.667 21.3123 112.349 20.1717C113.11 18.9217 113.922 17.7446 114.787 16.63C115.006 16.354 115.271 16.0571 115.578 15.7342C115.047 15.6508 114.526 15.5988 114.016 15.5675C113.901 15.5415 112.506 15.5675 109.828 15.6508C109.521 15.6508 109.276 15.5206 109.099 15.255C108.933 14.979 108.891 14.6925 108.974 14.4008C109.058 14.0988 109.256 13.9165 109.578 13.8592C111.162 13.5571 112.953 13.3331 114.953 13.1925C115.412 13.1508 116.266 13.1508 117.516 13.1925C118.334 13.1925 118.87 13.2758 119.12 13.4425C119.631 13.7238 119.938 14.1456 120.037 14.7133C120.146 15.2863 120.104 15.8279 119.912 16.3383C119.729 16.854 119.479 17.3383 119.162 17.7967C117.797 19.8123 116.917 21.1456 116.516 21.7967C115.667 23.1613 114.849 24.6665 114.058 26.3175C114.11 26.2915 114.151 26.2758 114.183 26.2758C114.235 26.2758 114.724 26.2654 115.641 26.2342C115.86 26.2081 116.287 26.1665 116.912 26.1092C117.537 26.0571 118.037 26.0206 118.412 26.005C118.797 25.9946 119.245 26.0258 119.745 26.1092C120.245 26.1925 120.646 26.3331 120.953 26.5258Z" fill="#343A40"/>
<path d="M138.146 20.6508C138.422 20.2758 138.792 20.2289 139.25 20.505C139.709 20.7706 139.855 21.1196 139.688 21.5466C139.063 23.0466 138.105 24.3331 136.813 25.4008C135.532 26.4737 134.115 27.1456 132.563 27.4216C130.938 27.6873 129.625 27.6456 128.625 27.2966C127.094 26.7029 125.948 25.6821 125.188 24.2341C124.672 23.2081 124.36 22.0987 124.25 20.9008C124.151 19.7081 124.313 18.5258 124.73 17.3591C125.146 16.1925 125.818 15.2862 126.75 14.63C128.177 13.63 129.605 13.3175 131.021 13.6925C132.49 14.0987 133.214 15.1925 133.188 16.9841C133.188 18.4008 132.782 19.63 131.98 20.6716C131.172 21.7133 130.105 22.3591 128.771 22.6091C129.131 23.2654 129.646 23.6716 130.313 23.8383C130.98 23.9946 131.782 24.0206 132.73 23.9216C133.782 23.8123 134.594 23.5623 135.167 23.1716C136.636 22.1196 137.631 21.2758 138.146 20.6508ZM130.209 16.4633C129.386 16.7862 128.802 17.3956 128.459 18.2966C128.125 19.1873 128.042 20.1091 128.209 21.0675C129.427 20.6821 130.313 19.9737 130.855 18.9425C131.214 18.2914 131.355 17.6404 131.271 16.9841C131.24 16.6091 131.146 16.3904 130.98 16.3175C130.813 16.2498 130.552 16.2966 130.209 16.4633Z" fill="#343A40"/>
</svg>
